<?xml version="1.0" encoding="utf-8"?>
<!-- Generator: Adobe Illustrator 16.0.0, SVG Export Plug-In . SVG Version: 6.00 Build 0)  -->
<!DOCTYPE svg PUBLIC "-//W3C//DTD SVG 1.1//EN" "http://www.w3.org/Graphics/SVG/1.1/DTD/svg11.dtd">
<svg version="1.1" id="Layer_1" xmlns="http://www.w3.org/2000/svg" xmlns:xlink="http://www.w3.org/1999/xlink" x="0px" y="0px"
	 width="20px" height="20px" viewBox="0 0 20 20" enable-background="new 0 0 20 20" xml:space="preserve">
<path fill="#757A7E" d="M19.707,18.293L14.314,12.9C15.367,11.546,16,9.849,16,8c0-4.417-3.58-8-8-8C3.582,0,0,3.583,0,8
	c0,4.42,3.582,8,8,8c1.849,0,3.547-0.633,4.9-1.686l5.393,5.393C18.488,19.902,18.744,20,19,20s0.512-0.098,0.707-0.293
	C20.098,19.316,20.098,18.684,19.707,18.293z M1,8c0-3.859,3.141-7,7-7s7,3.141,7,7s-3.141,7-7,7S1,11.859,1,8z"/>
</svg>
